<?xml version="1.0" standalone="no"?>
<!DOCTYPE svg PUBLIC "-//W3C//DTD SVG 20010904//EN"
 "http://www.w3.org/TR/2001/REC-SVG-20010904/DTD/svg10.dtd">
<svg version="1.0" xmlns="http://www.w3.org/2000/svg"
 width="256.000000pt" height="256.000000pt" viewBox="0 0 256.000000 256.000000"
 preserveAspectRatio="xMidYMid meet">
<metadata>
Created by potrace 1.14, written by Peter Selinger 2001-2017
</metadata>
<g transform="translate(0.000000,256.000000) scale(0.100000,-0.100000)"
fill="#000000" stroke="none">
<path d="M1653 2170 c-83 -3 -155 -8 -159 -12 -8 -9 15 -96 27 -104 5 -3 25
-7 45 -8 19 -2 37 -6 40 -9 5 -4 -11 -42 -63 -157 -17 -36 -41 -87 -53 -115
-12 -27 -38 -83 -57 -124 -19 -41 -44 -98 -55 -125 -12 -28 -27 -56 -34 -62
-8 -6 -11 -14 -8 -17 3 -3 -1 -18 -9 -34 -19 -36 -90 -186 -93 -195 -1 -5 -3
-10 -4 -13 -1 -3 -3 -8 -4 -12 -5 -18 -42 -89 -49 -94 -5 -3 -8 -10 -7 -15 2
-15 -51 -124 -62 -124 -5 0 -7 -4 -4 -9 8 -12 -33 -87 -45 -83 -6 1 -8 -2 -4
-8 10 -16 -72 -150 -92 -150 -7 0 -13 -4 -13 -9 0 -17 -37 -18 -72 -1 -38 18
-76 17 -119 -6 -16 -8 -31 -14 -34 -14 -6 0 -43 -37 -77 -78 -29 -35 -29 -48
-2 -104 23 -49 53 -59 124 -41 57 15 143 53 148 66 2 4 8 7 13 7 19 0 155 97
239 170 79 69 78 69 118 118 19 23 42 51 53 64 31 37 33 41 54 81 11 20 23 37
27 37 5 0 7 3 6 8 -2 9 14 47 57 137 19 40 35 77 35 84 0 6 4 11 10 11 5 0 9
3 8 8 -1 4 7 28 19 53 11 26 27 63 34 82 7 20 17 33 23 30 6 -3 8 -3 4 1 -7 8
7 47 52 141 16 33 50 107 75 165 72 160 126 261 138 253 5 -3 7 -1 3 5 -3 5 5
24 19 40 24 29 39 35 110 48 74 12 82 24 57 84 l-17 41 -125 -3 c-69 -2 -193
-5 -277 -8z"/>
<path d="M550 1921 c0 -6 4 -13 10 -16 6 -3 7 1 4 9 -7 18 -14 21 -14 7z"/>
</g>
</svg>
